<svg width="16" height="16" viewBox="0 0 16 16" fill="none" xmlns="http://www.w3.org/2000/svg">
<path d="M8.96521 1.10355C9.08269 0.516166 9.8074 0.296739 10.231 0.720311L15.2803 5.76966C15.7039 6.19323 15.4845 6.91795 14.8971 7.03543L13.3966 7.33552C13.3443 7.34598 13.2963 7.37168 13.2586 7.40939L10.8585 9.80949C10.8129 9.85509 10.7851 9.91549 10.7802 9.97978L10.491 13.7393C10.4484 14.2928 9.96524 14.7069 9.41181 14.6643C9.17261 14.6459 8.94787 14.5426 8.77823 14.3729L5.73333 11.3275L1.78033 15.281C1.48744 15.5739 1.01256 15.5739 0.71967 15.281C0.451184 15.0125 0.428811 14.5911 0.652549 14.2971L0.71967 14.2203L4.6725 10.2667L1.6277 7.22241C1.26138 6.85608 1.23696 6.27733 1.55444 5.88268L1.6277 5.80108C1.79734 5.63144 2.02208 5.52807 2.26128 5.50967L6.02085 5.22048C6.08514 5.21553 6.14554 5.18775 6.19114 5.14215L8.59124 2.74205C8.62895 2.70434 8.65466 2.65632 8.66512 2.60402L8.96521 1.10355ZM10.1608 2.77147L10.136 2.8982C10.0675 3.24088 9.89901 3.5556 9.6519 3.80271L7.2518 6.20281C6.95301 6.5016 6.5572 6.68365 6.1359 6.71606L3.44917 6.92231L9.0775 12.5506L9.28458 9.86474C9.31294 9.4961 9.45586 9.14697 9.69131 8.86529L9.79782 8.74883L12.1979 6.34873C12.445 6.10162 12.7598 5.93319 13.1024 5.86465L13.2283 5.83897L10.1608 2.77147Z" fill="black"/>
</svg>
