<svg width="16" height="16" viewBox="0 0 16 16" fill="none" xmlns="http://www.w3.org/2000/svg">
<path d="M2.95353 1.06925L3.03033 1.13637L14.8637 12.9697C15.1566 13.2626 15.1566 13.7375 14.8637 14.0304C14.5952 14.2989 14.1738 14.3212 13.8798 14.0975L13.803 14.0304L10.7067 10.9342L10.491 13.7394C10.4484 14.2928 9.96525 14.707 9.41183 14.6644C9.17258 14.646 8.94783 14.5426 8.77823 14.373L5.73333 11.3275L1.78033 15.281C1.48743 15.5739 1.01256 15.5739 0.71967 15.281C0.451185 15.0125 0.428811 14.5911 0.652548 14.2971L0.71967 14.2204L4.6725 10.2667L1.6277 7.22245C1.26138 6.85612 1.23695 6.27737 1.55443 5.88272L1.6277 5.80111C1.79734 5.63147 2.02208 5.52811 2.26128 5.50971L5.06583 5.29337L1.96967 2.19703C1.67678 1.90414 1.67678 1.42927 1.96967 1.13637C2.23815 0.867889 2.65956 0.845516 2.95353 1.06925ZM6.43856 6.66616C6.33988 6.69139 6.23865 6.70819 6.1359 6.7161L3.44917 6.92235L9.0775 12.5507L9.28458 9.86479C9.29248 9.76203 9.30928 9.66079 9.3345 9.56211L6.43856 6.66616ZM10.1545 0.654783L10.2279 0.719503L15.2818 5.7695C15.6833 6.17068 15.5074 6.84163 14.9897 7.0116L14.8949 7.03624L13.3699 7.3327L13.3259 7.35513L12.8821 7.80047C12.5897 8.09387 12.1148 8.09469 11.8214 7.8023C11.5524 7.53428 11.5293 7.11292 11.7526 6.81856L11.8196 6.74164L12.2642 6.29552C12.4624 6.09721 12.7091 5.95569 12.9686 5.88612L13.2225 5.83254L10.1608 2.77254L10.1363 2.89774C10.0877 3.17173 9.96798 3.42725 9.78902 3.64029L9.69466 3.74315L9.25461 4.17992C8.96062 4.47171 8.48575 4.46994 8.19396 4.17595C7.92648 3.90646 7.90568 3.48498 8.13052 3.19185L8.19793 3.1153L8.63619 2.68031L8.64265 2.67018L8.66207 2.62134L8.962 1.10455C9.07185 0.548993 9.72499 0.321316 10.1545 0.654783Z" fill="black"/>
</svg>
